<svg width="66" height="66" viewBox="0 0 66 66" fill="none" xmlns="http://www.w3.org/2000/svg">
<circle opacity="0.1" cx="33" cy="33" r="33" fill="#D9D9D9"/>
<path opacity="0.9" d="M48.1469 25.3048H37.914V22.3811H48.1469V25.3048ZM50.632 39.9232C50.0473 41.8236 47.7083 44.3088 43.1766 44.3088C38.6449 44.3088 34.9903 41.8236 34.9903 35.9763C34.9903 30.2751 38.3525 27.3514 43.0304 27.3514C47.5622 27.3514 50.3397 29.9827 50.9244 33.7835C51.0706 34.5144 51.0706 35.5377 51.0706 36.9995H39.3758C39.522 41.6774 44.4923 41.8236 46.1003 39.9232H50.632ZM39.3758 34.0759H46.685C46.5389 31.8831 45.077 30.8598 43.0304 30.8598C40.9839 30.8598 39.8144 31.8831 39.3758 34.0759ZM25.4883 44.3088H15.9863V22.3811H26.2192C34.2594 22.5273 34.4056 30.2751 30.1662 32.4678C35.1365 34.3682 35.2827 44.3088 25.4883 44.3088ZM20.3719 31.1522H25.6345C29.2891 31.1522 29.8738 26.7666 25.1959 26.7666H20.3719V31.1522ZM25.3421 35.5377H20.3719V39.9232H25.1959C29.7277 39.9232 29.4353 35.5377 25.3421 35.5377Z" fill="white"/>
</svg>
