<svg width="66" height="66" viewBox="0 0 66 66" fill="none" xmlns="http://www.w3.org/2000/svg">
<circle opacity="0.1" cx="33" cy="33" r="33" fill="#D9D9D9"/>
<path opacity="0.9" d="M33.1934 18.1177C24.902 18.1177 18.1182 24.9015 18.1182 33.1929C18.1182 41.4843 24.902 48.2682 33.1934 48.2682C41.4848 48.2682 48.2687 41.4843 48.2687 33.1929C48.2687 24.9015 41.4848 18.1177 33.1934 18.1177ZM45.6305 32.4392C42.3642 31.9367 39.4748 31.9367 36.711 32.3135C36.4597 31.5598 36.0829 30.9317 35.706 30.1779C38.5954 28.9216 40.9823 27.1628 42.6155 25.0272C44.3742 27.1628 45.5049 29.6754 45.6305 32.4392ZM40.7311 23.394C39.2235 25.4041 37.0879 26.9116 34.4497 28.0422C33.1934 25.6553 31.8115 23.394 30.1784 21.1327C31.1834 20.8815 32.1884 20.7558 33.1934 20.7558C36.0829 20.7558 38.721 21.7609 40.7311 23.394ZM27.5402 22.1377C29.1734 24.2734 30.6809 26.5347 31.9372 28.9216C28.9221 29.801 25.2789 30.1779 21.1332 30.3035C22.0126 26.6603 24.3995 23.7709 27.5402 22.1377ZM20.7563 33.1929V32.8161C25.5302 32.8161 29.8015 32.3135 33.1934 31.1829C33.4447 31.811 33.8216 32.4392 34.0728 32.9417C29.8015 34.3236 26.2839 36.9618 23.6458 41.1075C21.887 38.9718 20.7563 36.208 20.7563 33.1929ZM25.5302 42.9919C28.0427 39.0974 31.1834 36.5849 35.0778 35.4542C36.2085 38.4693 37.0879 41.61 37.5904 44.8763C33.4447 46.3838 28.9221 45.63 25.5302 42.9919ZM40.1029 43.4944C39.6004 40.4793 38.721 37.5899 37.716 34.8261C40.1029 34.4492 42.6155 34.5748 45.5049 35.0773C44.8768 38.5949 42.9923 41.61 40.1029 43.4944Z" fill="white"/>
</svg>
