<svg width="66" height="66" viewBox="0 0 66 66" fill="none" xmlns="http://www.w3.org/2000/svg">
<circle opacity="0.1" cx="33" cy="33" r="33" fill="#D9D9D9"/>
<path opacity="0.9" d="M33.1934 20.8815C37.2135 20.8815 37.716 20.8815 39.3492 21.0071C43.4949 21.1327 45.3793 23.1428 45.5049 27.1628C45.6305 28.796 45.6305 29.1729 45.6305 33.1929C45.6305 37.213 45.6305 37.7155 45.5049 39.223C45.3793 43.2431 43.3692 45.2532 39.3492 45.3788C37.716 45.5044 37.3391 45.5044 33.1934 45.5044C29.1734 45.5044 28.6708 45.5044 27.1633 45.3788C23.0176 45.2532 21.1332 43.2431 21.0076 39.223C20.882 37.5899 20.882 37.213 20.882 33.1929C20.882 29.1729 20.882 28.6704 21.0076 27.1628C21.1332 23.1428 23.1433 21.1327 27.1633 21.0071C28.6708 20.8815 29.1734 20.8815 33.1934 20.8815ZM33.1934 18.1177C29.0477 18.1177 28.5452 18.1177 27.0377 18.2433C21.5101 18.4946 18.495 21.5096 18.2438 27.0372C18.1182 28.5447 18.1182 29.0472 18.1182 33.1929C18.1182 37.3386 18.1182 37.8411 18.2438 39.3487C18.495 44.8763 21.5101 47.8913 27.0377 48.1426C28.5452 48.2682 29.0477 48.2682 33.1934 48.2682C37.3391 48.2682 37.8416 48.2682 39.3492 48.1426C44.8768 47.8913 47.8918 44.8763 48.1431 39.3487C48.2687 37.8411 48.2687 37.3386 48.2687 33.1929C48.2687 29.0472 48.2687 28.5447 48.1431 27.0372C47.8918 21.5096 44.8768 18.4946 39.3492 18.2433C37.8416 18.1177 37.3391 18.1177 33.1934 18.1177ZM33.1934 25.4041C28.9221 25.4041 25.4045 28.9216 25.4045 33.1929C25.4045 37.4643 28.9221 40.9818 33.1934 40.9818C37.4648 40.9818 40.9823 37.4643 40.9823 33.1929C40.9823 28.9216 37.4648 25.4041 33.1934 25.4041ZM33.1934 38.218C30.4296 38.218 28.1683 35.9567 28.1683 33.1929C28.1683 30.4291 30.4296 28.1679 33.1934 28.1679C35.9572 28.1679 38.2185 30.4291 38.2185 33.1929C38.2185 35.9567 35.9572 38.218 33.1934 38.218ZM41.2336 23.394C40.2285 23.394 39.4748 24.1478 39.4748 25.1528C39.4748 26.1578 40.2285 26.9116 41.2336 26.9116C42.2386 26.9116 42.9923 26.1578 42.9923 25.1528C42.9923 24.1478 42.2386 23.394 41.2336 23.394Z" fill="white"/>
</svg>
