<svg width="37" height="42" viewBox="0 0 37 42" fill="none" xmlns="http://www.w3.org/2000/svg">
<path d="M18.459 0L0.00587231 10.4968L1.31957 11.2439L18.461 1.48849L34.2834 10.4968L35.6128 9.74073L18.459 0ZM32.9854 11.235L18.459 2.99296L2.63849 11.9917V16.493L14.5094 23.2446L15.8283 22.4942L3.95741 15.7426V12.742L18.4662 4.48977L31.656 11.9917L32.9854 11.2356V11.235ZM18.4603 5.99296L5.27568 13.4917V14.9923L17.1518 21.7471L18.4655 20.9936L6.5946 14.242L18.4583 7.49424L29.0175 13.4917L30.3364 12.7414L18.4603 5.99232V5.99296ZM0.00521939 31.5032L18.4655 42L18.4603 20.991L17.1466 21.7446V39.7497L1.31892 30.7471V21.7446L0.00521939 20.9974V31.5032ZM2.63784 29.9968L15.8277 37.4987L15.8205 22.4987L14.5088 23.2452V35.2484L3.96197 29.2439L3.89414 23.2439L2.57 22.4968L2.63784 29.9974V29.9968ZM5.27829 28.4949L13.1898 32.9974V23.9949L11.8709 24.7452V30.7471L6.59524 27.7465V24.7458L5.27633 23.9955L5.27894 28.4955L5.27829 28.4949ZM0.00521939 10.4974L0 18.0563L11.8709 24.7452L13.1898 23.9949L1.31892 17.306V11.2439L0.00521939 10.4968V10.4974ZM19.8086 20.2439L19.7844 21.7446L36.931 11.9917L36.9206 10.4974L19.8086 20.2439ZM19.7844 24.7452L34.288 16.4898L34.2932 14.9923L19.7844 23.2446V24.7452ZM19.7792 27.749L31.6554 20.9942V19.4936L19.7792 26.2484V27.749ZM36.9206 31.5032L36.931 11.9917L35.6121 12.742V30.7471L19.7792 39.7529V41.2471L36.9206 31.5038V31.5032ZM34.288 29.9936V16.4898L32.9769 17.2446V29.2446L19.7844 36.7484V38.249L34.288 29.9936ZM19.7844 33.7478L19.7792 35.251L31.6554 28.4962V20.9942L30.3364 21.7446L30.3417 27.749L19.7844 33.7478Z" fill="white"/>
</svg>
